# xmcd
# Track frame offsets:
# 150
# 16623
# 32046
# 49269
# 68292
# 87840
# 104088
# 118986
# 135759
# 151557
#
# Disc length: 2236 seconds
# Revision: 0
# Processed by: cddbd v1.5.2PL0 Copyright (c) Steve Scherf et al.
# Submitted via: VisiTrax 2.11.2.271 - For more info visit www.synapsa.com
#
DISCID=6e08ba0a
DTITLE=Doc Walker - Beautiful Life
DYEAR=2009
DGENRE=Country
TTITLE0=Beautiful Life
TTITLE1=Echo Road
TTITLE2=That's All
TTITLE3=Angry Heart
TTITLE4=One Last Sundown
TTITLE5=On The Heels Of A Heartache
TTITLE6=Annabelle
TTITLE7=A Little Love Along The Way
TTITLE8=Without Your Love
TTITLE9=Stay Brave
EXTD=
EXTT0=
EXTT1=
EXTT2=
EXTT3=
EXTT4=
EXTT5=
EXTT6=
EXTT7=
EXTT8=
EXTT9=
PLAYORDER=
